<?xml version="1.0" encoding="utf-8"?>
<!-- Generator: Adobe Illustrator 23.0.2, SVG Export Plug-In . SVG Version: 6.00 Build 0)  -->
<svg version="1.1" id="Layer_1" xmlns="http://www.w3.org/2000/svg" xmlns:xlink="http://www.w3.org/1999/xlink" x="0px" y="0px"
	 viewBox="0 0 64 64" style="enable-background:new 0 0 64 64;" xml:space="preserve">
<style type="text/css">
	.st0{fill:#6C63FE;}
</style>
<g>
	<path class="st0" d="M46.2,63.2L46.2,63.2C46.2,63.2,46.2,63.2,46.2,63.2c0.2,0.2,0.5,0.3,0.7,0.4c0.1,0,0.2,0,0.2,0.1
		c0.2,0,0.4,0.1,0.6,0.1c0.1,0,0.1,0,0.2,0c0,0,0.1,0,0.1,0c0.2,0,0.5-0.1,0.7-0.2c0,0,0,0,0.1,0c0.2-0.1,0.4-0.2,0.6-0.4
		c0,0,0.1,0,0.1-0.1l11.5-11c0.9-0.8,0.8-2.1-0.1-2.9c-1-0.8-2.4-0.7-3.3,0.2l-6.2,5.9c0.6-8.2-1.6-16-1.7-16.4
		C43.7,14.5,20-1.5-3.3,3.1c-1.2,0.2-1.9,1.1-1.9,2.1c0,0.1,0,0.2,0,0.3c0.3,1.1,1.5,1.8,2.8,1.5c20.7-4.1,42,10.6,47.4,32.7
		c0,0.1,2.3,8.2,1.5,16.1L41,47.6c-0.7-1-2.1-1.3-3.2-0.7c-1.1,0.6-1.5,1.8-0.8,2.8l8.8,13C45.9,62.9,46,63.1,46.2,63.2z"/>
</g>
</svg>
